<svg width="141" height="105" viewBox="0 0 141 105" fill="none" xmlns="http://www.w3.org/2000/svg">
<path d="M39.0794 5.18349C39.0922 4.92659 39.1243 4.20083 39.6317 3.6806C40.0877 3.21175 40.7043 3.12826 40.974 3.09615C47.0241 2.36397 57.9683 3.15395 60.6208 3.09615C60.9612 3.08972 61.9503 3.05119 62.7595 3.6806C63.222 4.04027 63.5495 4.5605 63.755 5.21561C64.5771 7.84245 65.791 9.65363 67.3774 10.8482C68.9895 12.0685 70.9355 12.9099 76.6709 12.7365C76.6709 12.7365 101.109 12.0107 103.639 12.5566C104.173 12.6723 104.506 12.987 104.506 12.987C105.11 13.5522 105.104 14.4577 105.104 14.8495C105.097 19.5444 105.528 20.8097 104.532 21.4905C104.134 21.7602 103.749 21.7859 103.1 21.8116C99.895 21.9337 98.2894 21.9979 97.1205 21.8116C92.098 20.9831 54.7248 21.8887 41.1218 21.7346C40.7236 21.7346 39.9721 21.7089 39.317 21.2207C37.8591 20.1353 38.7518 18.1507 38.5784 12.2869C38.5078 9.91695 38.9573 7.55344 39.0729 5.18349H39.0794Z" fill="#ECFEE5"/>
<path d="M117.725 62.5953C118.226 50.0006 113.171 40.296 101.784 34.2652C100.666 33.6743 99.5808 32.9999 98.4826 32.3705C92.1049 30.5529 85.7144 30.0584 79.2725 32.0879C66.0548 36.2626 57.4228 48.883 58.6624 62.7751C58.9321 65.813 58.1165 66.3268 55.3676 66.2305C49.5102 66.0314 43.6399 66.1856 37.7697 66.1599C36.5429 66.1599 35.1492 66.5195 34.34 65.0937C33.4858 64.4514 33.8262 63.5266 33.8262 62.7238C33.8005 52.0301 33.9097 41.3365 33.7427 30.6493C33.6977 27.9197 34.9244 27.8362 37.0118 27.8426C57.0054 27.894 77.0054 27.9132 96.9989 27.8297C99.4395 27.8169 100.975 28.1059 100.454 31.0218C100.281 31.998 100.737 32.666 101.732 32.9164C101.809 28.3371 101.938 23.7642 101.938 19.1849C101.938 16.1984 99.9855 15.5626 97.41 15.5754C97.41 15.5754 76.7356 16.314 67.9816 15.6974C67.3265 15.6525 66.2539 15.524 65.1107 14.9139C63.9739 14.3101 63.2738 13.5009 62.5416 12.5632C60.0497 9.37116 60.1653 8.49126 59.067 7.4508C57.5834 6.04425 55.7208 6.07636 51.3214 6.08278C48.9129 6.08278 44.9501 6.08278 39.5166 6.01855C38.9835 6.06994 38.4569 6.15343 37.9238 6.16627C32.7664 6.29473 32.2719 6.79569 32.2719 11.953C32.2719 28.9473 32.2655 45.9415 32.2719 62.9357C32.2719 67.059 33.0041 67.7719 37.1595 67.7784C43.6785 67.7912 50.2038 67.8554 56.7163 67.7398C58.6367 67.7077 59.4973 68.305 60.0946 70.1547C62.1691 76.5709 66.0291 81.7989 71.7517 85.3635C83.4408 92.6531 95.0144 91.831 106.344 84.3615C112.927 78.5683 117.359 71.5227 117.712 62.6017L117.725 62.5953ZM34.0188 9.9235C34.0381 9.5831 34.1216 8.94726 34.5712 8.42061C35.2841 7.59209 36.4916 7.54714 36.9668 7.52787C39.3303 7.43795 40.5121 7.39299 55.5539 7.84258C55.9007 7.85542 56.8127 7.86827 57.6926 8.42703C58.6881 9.05003 59.0991 10.007 59.3753 10.5915C59.3753 10.5915 60.1781 12.2934 62.3811 15.1836C63.7748 17.0141 66.3246 17.348 71.604 17.4893C85.4126 17.849 93.8968 17.348 96.62 17.3609C97.7119 17.3609 99.0349 16.8471 99.7799 18.2279C99.8442 18.35 99.9148 18.472 99.979 18.594C100.608 21.0539 100.814 23.5137 99.979 25.9672C99.9662 25.9672 99.9598 25.9736 99.9469 25.98C99.2212 26.6223 98.3349 26.3782 97.5128 26.3782C77.243 26.3911 56.9668 26.3911 36.6971 26.3782C35.8686 26.3782 34.9758 26.6094 34.2501 25.9608C33.3766 20.63 33.7619 15.2478 34.0188 9.9235ZM87.8467 88.6711C72.5224 88.5619 60.0689 75.9351 60.0818 60.5015C60.0946 44.946 72.7086 32.3577 88.2385 32.3962C103.749 32.4347 116.17 45.0616 116.113 60.7263C116.055 76.314 103.447 88.7803 87.8531 88.6711H87.8467Z" fill="#999A9D"/>
<path d="M121.97 85.3574C119.992 83.2379 117.911 81.5424 114.751 82.281C113.685 82.5314 113.229 81.78 112.721 81.0928C112.482 83.726 111.026 84.9913 108.354 84.8885C109.561 85.7106 110.287 86.6676 110.107 88.3118C109.915 90.1037 110.859 91.5809 112.086 92.8526C115.271 96.1474 118.405 99.4871 121.642 102.731C124.507 105.595 128.168 105.736 130.711 103.219C133.261 100.701 133.177 97.0915 130.384 94.0986C127.622 91.1377 124.725 88.3054 121.964 85.3445L121.97 85.3574ZM130.493 100.573C129.78 102.294 128.335 103.161 126.472 103.309C125.111 103.296 124.006 102.711 123.075 101.754C119.799 98.3824 116.485 95.0427 113.28 91.6066C111.167 89.3458 111.186 86.9759 113.113 85.0876C115.034 83.2058 117.391 83.2829 119.581 85.473C122.908 88.7935 126.138 92.2103 129.427 95.5758C130.846 97.0273 131.257 98.7293 130.493 100.573Z" fill="#999A9D"/>
<path d="M112.721 81.0996C111.97 83.1035 110.904 84.7155 108.425 84.5999C108.405 84.5999 108.373 84.7926 108.354 84.8954C111.03 84.9938 112.486 83.7286 112.721 81.0996Z" fill="#999A9D"/>
<path d="M20.5245 67.4893C19.4519 65.357 15.7782 63.7385 13.723 64.7211C10.0749 66.4745 6.25989 67.9068 2.90728 70.2382C2.70818 71.2144 2.86232 72.1071 3.31191 73.0192C5.61762 77.7141 7.89123 82.4218 10.1584 87.136C10.6915 88.2407 11.4558 89.0821 12.6375 89.4931C16.6581 87.515 20.653 85.479 24.712 83.5779C26.9728 82.5182 27.3196 81.163 26.1764 78.9793C24.1918 75.2028 22.4449 71.2979 20.5245 67.4829V67.4893ZM18.3665 67.0012C16.6902 68.1765 15.8103 67.8875 15.3158 66.1598C16.4333 65.8001 17.2682 66.2433 18.3665 67.0012ZM24.7955 81.908C21.2759 83.6743 17.7242 85.3955 14.2432 87.2388C12.8495 87.9774 12.0081 88.0224 11.2503 86.4039C9.12437 81.8631 6.90857 77.3608 4.64139 72.8843C3.94132 71.5098 4.1918 70.7391 5.5534 70.1226C7.30035 69.3326 9.04087 68.5041 10.73 67.5856C12.4962 66.6287 14.1212 65.5625 15.0396 68.5683C15.5341 70.1932 16.748 69.2041 17.6986 68.9793C18.3665 68.6004 19.0794 67.592 19.7345 68.9023C21.6613 72.7879 23.5495 76.6993 25.4057 80.6235C25.6626 81.163 25.3479 81.6383 24.7955 81.9016V81.908Z" fill="#999A9D"/>
<path d="M9.06673 86.8861C6.70321 82.5701 4.96911 77.9458 2.72762 73.572C2.16243 72.4738 2.08536 71.3113 2.90745 70.2451C0.0236998 71.3048 -0.83693 72.8463 0.877906 75.8328C3.15793 79.8084 4.98195 84.0409 7.03077 88.1514C8.66211 91.4205 9.35575 91.5746 12.6377 89.5001C10.6017 89.7955 9.81175 88.2477 9.06673 86.8925V86.8861Z" fill="#ECFEE5"/>
<path d="M10.1588 87.1362C7.88521 82.4284 5.61803 77.7142 3.31231 73.0193C2.86273 72.1073 2.70859 71.2145 2.90769 70.2383C2.08559 71.3044 2.16909 72.4669 2.72786 73.5652C4.96935 77.9454 6.70987 82.5633 9.06697 86.8793C9.81199 88.2344 10.602 89.7823 12.6379 89.4868C11.4562 89.0758 10.6919 88.2344 10.1588 87.1297V87.1362Z" fill="#ECFEE5"/>
<path d="M134.571 7.52818C134.468 6.21155 133.389 6.35285 132.663 6.48772C128.855 7.19421 127.718 5.49222 128.277 1.97263C128.399 1.18907 128.495 -0.0376493 127.307 0.000886384C126.221 0.039422 126.209 1.2276 126.356 2.03685C127.011 5.69774 125.573 7.15567 121.925 6.46203C121.616 6.40423 121.282 6.45561 120.968 6.49414C120.403 6.57121 119.863 6.83454 119.972 7.46396C120.024 7.77867 120.48 8.17687 120.826 8.26678C121.43 8.42093 122.111 8.48515 122.727 8.38239C125.643 7.91354 126.838 9.04392 126.356 11.9983C126.221 12.814 126.215 14.0536 127.255 14.0857C128.694 14.1306 128.399 12.6855 128.264 11.8827C127.699 8.64572 129.381 8.08053 132.053 8.37597C132.946 8.47231 134.018 8.65856 134.571 7.52818Z" fill="#999A9D"/>
<path d="M137.403 58.7804C135.348 58.7675 133.954 60.0649 133.839 62.1844C133.717 64.4772 135.085 65.6975 137.281 66.07C139.523 65.8838 140.974 64.7277 141.006 62.4605C141.038 60.1998 139.625 58.7868 137.403 58.7804ZM139.728 62.6018C139.6 64.079 138.63 64.9204 137.166 64.7598C135.894 64.6185 135.046 63.7643 135.11 62.3963C135.174 60.9191 136.061 60.1355 137.532 60.0135C138.97 60.2897 139.857 61.1054 139.728 62.6018Z" fill="#999A9D"/>
<path d="M9.49072 6.48828C9.49072 6.6938 9.50357 6.88648 9.51641 7.07916C9.51641 6.89291 9.50357 6.6938 9.49072 6.48828Z" fill="#999A9D"/>
<path d="M9.62571 14.8379C9.62571 14.6002 9.62571 14.3819 9.60645 14.1699C9.60645 14.3819 9.60645 14.6002 9.62571 14.8379Z" fill="#999A9D"/>
<path d="M9.6066 14.1692C9.64513 11.4589 11.4948 10.9708 13.8905 10.8038C11.0902 10.9001 9.73505 9.71196 9.5231 7.07227C9.54879 9.85968 7.83396 10.6561 5.28418 10.8488C7.73119 10.9001 9.4075 11.5874 9.6066 14.1692Z" fill="#999A9D"/>
<path d="M22.6636 78.4853C19.0606 80.3221 15.4639 82.159 11.8608 83.9894C11.6553 83.5656 11.4498 83.1417 11.2378 82.7242C14.8859 81.0222 18.5275 79.3138 22.1755 77.6118L20.0946 73.8803C16.5236 75.5694 12.9591 77.2585 9.3881 78.9477C9.19543 78.5688 8.99632 78.1834 8.80365 77.8045C12.4003 76.0768 15.997 74.3555 19.5936 72.6279C18.9578 71.414 18.3284 70.2001 17.6925 68.9862C16.742 69.211 15.5281 70.2001 15.0336 68.5752C14.1151 65.5694 12.4966 66.6356 10.724 67.5925C9.03486 68.5045 7.30076 69.3331 5.54738 70.1295C4.18579 70.746 3.93531 71.5167 4.63537 72.8912C6.90898 77.3613 9.11835 81.8636 11.2442 86.4108C12.0021 88.0293 12.8435 87.9843 14.2372 87.2457C17.7182 85.4024 21.2699 83.6812 24.7895 81.9149C24.3977 81.2919 24.0124 80.669 23.6206 80.0395C23.2995 79.5257 22.9783 79.0055 22.6572 78.4917L22.6636 78.4853ZM14.0573 70.2964C12.1819 72.3388 9.70281 73.2316 7.07596 73.8353C8.97706 71.8058 11.3534 70.7268 14.0573 70.2964Z" fill="#ECFEE5"/>
<path d="M88.3923 35.3062C74.2433 35.2163 63.0936 46.2889 63.0679 60.47C63.0422 74.5162 74.0313 85.6851 87.9555 85.7622C101.925 85.8393 113.203 74.7988 113.338 60.9131C113.479 46.7641 102.406 35.3961 88.3923 35.3062ZM88.1289 84.1501C75.258 84.118 64.6993 73.5593 64.6415 60.6691C64.5837 47.6119 75.1938 36.9054 88.1739 36.9247C101.077 36.944 111.559 47.4449 111.597 60.3993C111.636 73.5464 101.122 84.1887 88.1289 84.1501Z" fill="#999A9D"/>
<path d="M15.2136 75.4404C13.9034 76.057 12.6189 76.6286 11.4692 77.2709C12.7666 76.969 13.9612 76.1855 15.2136 75.4404Z" fill="#999A9D"/>
<path d="M20.0047 73.7842C19.7799 73.5401 19.6322 73.2703 19.6001 72.9492C18.9386 73.4309 18.2513 73.8612 17.5513 74.253C18.3156 73.964 19.1248 73.7842 20.0047 73.7842Z" fill="#999A9D"/>
<path d="M17.5512 74.2533C16.7741 74.6836 15.9905 75.0754 15.2134 75.4414C13.9546 76.1929 12.76 76.9764 11.469 77.2719C12.6251 76.6296 13.9096 76.058 15.2134 75.4414C15.9584 74.9983 16.7291 74.568 17.5512 74.2533C18.2513 73.8615 18.9385 73.4312 19.6 72.9495C19.5872 72.8467 19.5872 72.7439 19.6 72.6348C16.0034 74.3624 12.4067 76.0837 8.81006 77.8114C9.00274 78.1903 9.20184 78.5757 9.39452 78.9546C12.9655 77.2655 16.53 75.5763 20.101 73.8872C20.0689 73.8551 20.0432 73.8165 20.0111 73.7844C19.1248 73.7844 18.3155 73.9642 17.5577 74.2533H17.5512Z" fill="#999A9D"/>
<path d="M17.5512 74.2529C16.7291 74.5676 15.9584 74.998 15.2134 75.4411C15.9905 75.0686 16.7805 74.6832 17.5512 74.2529Z" fill="#999A9D"/>
<path d="M19.6064 72.9484C19.6386 73.2696 19.7863 73.5393 20.0111 73.7834C20.0432 73.7834 20.0817 73.7834 20.1203 73.7834C20.1909 73.3595 20.1524 72.9741 19.7734 72.7236C19.7734 72.7622 19.7734 72.8007 19.7734 72.8392C19.7221 72.8778 19.6642 72.9099 19.6129 72.9484H19.6064Z" fill="#999A9D"/>
<path d="M20.1007 73.8869C20.1071 73.8548 20.1135 73.8227 20.1199 73.7842C20.0814 73.7842 20.0493 73.7842 20.0107 73.7842C20.0429 73.8163 20.0685 73.8548 20.1007 73.8869Z" fill="#999A9D"/>
<path d="M19.6061 72.9491C19.6575 72.9105 19.7153 72.8784 19.7667 72.8399C19.7667 72.8013 19.7667 72.7628 19.7667 72.7243C19.7153 72.6922 19.6639 72.66 19.5997 72.6279C19.5869 72.7371 19.5933 72.8463 19.5997 72.9426L19.6061 72.9491Z" fill="#999A9D"/>
<path d="M22.5992 78.4469C22.4066 78.3249 22.2139 78.2093 22.1497 78.0166C21.5074 78.3763 20.8523 78.7231 20.2036 79.0506C20.9551 78.7488 21.7515 78.5304 22.5992 78.4469Z" fill="#999A9D"/>
<path d="M18.0653 80.0967C16.8065 80.7068 15.5733 81.2977 14.4365 81.9143C15.6697 81.5097 16.8386 80.7839 18.0653 80.0967Z" fill="#999A9D"/>
<path d="M20.1973 79.0508C19.4523 79.3462 18.7458 79.7187 18.0586 80.1041C18.7651 79.7637 19.478 79.4169 20.1973 79.0508Z" fill="#999A9D"/>
<path d="M20.1973 79.0504C19.4844 79.4101 18.7651 79.7633 18.0586 80.1037C16.8319 80.7909 15.663 81.5103 14.4298 81.9213C15.5666 81.3047 16.7998 80.7139 18.0586 80.1037C18.7458 79.7184 19.4523 79.3523 20.1973 79.0504C20.8524 78.7229 21.5011 78.376 22.1434 78.0164C22.1048 77.9072 22.1048 77.7852 22.1755 77.6182C18.5275 79.3202 14.8858 81.0286 11.2378 82.7306C11.4433 83.1545 11.6488 83.5783 11.8608 83.9958C15.4639 82.1589 19.0605 80.3285 22.6636 78.4916C22.6379 78.4788 22.6187 78.4659 22.593 78.4467C21.7388 78.5302 20.9488 78.7485 20.1973 79.0504Z" fill="#999A9D"/>
<path d="M22.5994 78.4452C22.5994 78.4452 22.6315 78.4452 22.6444 78.4452C22.548 78.2654 22.4453 78.0919 22.3489 77.9121C22.2847 77.9506 22.2205 77.9828 22.1562 78.0213C22.2205 78.214 22.4132 78.336 22.6058 78.4516L22.5994 78.4452Z" fill="#999A9D"/>
<path d="M22.6634 78.4854C22.6634 78.4854 22.6442 78.4533 22.6377 78.4404C22.6249 78.4404 22.6056 78.4404 22.5928 78.4404C22.6185 78.4533 22.6377 78.4661 22.6634 78.4854Z" fill="#999A9D"/>
<path d="M22.15 78.0164C22.2142 77.9778 22.2785 77.9457 22.3427 77.9072C22.2913 77.8108 22.2335 77.7145 22.1821 77.6182C22.1179 77.7852 22.1179 77.9072 22.15 78.0164Z" fill="#999A9D"/>
<path d="M7.07568 73.8416C9.70253 73.2314 12.1817 72.3451 14.0571 70.3027C11.3531 70.733 8.9832 71.8185 7.07568 73.8416Z" fill="#999A9D"/>
<path d="M101.809 52.3061C101.906 52.1584 101.713 51.6638 101.508 51.5097C100.974 51.0986 100.441 51.4069 100.133 51.8372C98.9706 53.475 97.8916 53.475 96.7034 51.8629C96.3245 51.3491 95.7015 50.9381 95.1106 51.6446C94.6803 52.1648 94.9629 52.6722 95.4124 53.0126C96.9667 54.1686 97.1466 55.2862 95.4702 56.5129C94.9372 56.9047 94.5647 57.5084 95.284 58.0929C95.8235 58.536 96.3501 58.1956 96.6456 57.7717C97.9558 55.9027 99.1054 56.3652 100.319 57.8809C100.506 58.1185 101.084 58.1507 101.45 58.0929C101.636 58.0607 101.764 57.624 101.944 57.3221C101.263 56.4615 100.133 55.6523 100.114 54.8237C100.101 54.0017 101.244 53.1796 101.803 52.3125L101.809 52.3061Z" fill="#999A9D"/>
<path d="M80.9235 51.806C79.4527 50.2453 78.9582 53.1933 77.7186 53.2125C76.4405 53.2318 75.7854 50.5857 74.7 51.5491C73.0301 53.0263 76.0937 53.4052 76.0231 55.5054C75.9717 56.0449 73.4283 56.6615 74.4046 57.7405C75.8561 59.3461 76.3378 56.3339 77.6159 56.3789C78.8875 56.4238 79.5234 58.9865 80.6088 58.0423C82.2851 56.5908 79.2665 56.1477 79.2922 54.8439C79.3179 53.4951 81.9126 52.8593 80.9299 51.806H80.9235Z" fill="#999A9D"/>
<path d="M88.3347 65.8066C86.1189 65.903 84.2499 66.7443 82.8434 68.517C82.5094 68.9409 82.2011 69.4033 82.6957 69.8978C83.0682 70.2704 83.5435 70.0969 83.826 69.8208C86.7804 66.9178 89.7092 66.815 92.6892 69.7822C93.081 70.174 93.6976 70.3217 94.0316 69.7373C94.1729 69.4804 94.0123 68.9088 93.8068 68.6197C92.4709 66.7893 90.5891 65.9544 88.3411 65.8066H88.3347Z" fill="#999A9D"/>
</svg>
