<svg width="256" height="256" viewBox="0 0 256 256" fill="none" xmlns="http://www.w3.org/2000/svg">
<rect width="256" height="256" rx="15" fill="white"/>
<path d="M48.64 172.2L46.6 167.08C48.8933 166.28 50.7467 165.4 52.16 164.44C53.6 163.48 54.6533 162.453 55.32 161.36C56.0133 160.267 56.36 159.133 56.36 157.96C56.36 157.213 56.2533 156.44 56.04 155.64C55.8267 154.813 55.52 153.947 55.12 153.04C54.7467 152.133 54.2933 151.187 53.76 150.2L59 147.68C59.9333 149.467 60.6533 151.173 61.16 152.8C61.6933 154.427 61.96 155.947 61.96 157.36C61.96 158.667 61.7867 159.92 61.44 161.12C61.12 162.32 60.6133 163.44 59.92 164.48C59.2533 165.547 58.3867 166.547 57.32 167.48C56.2533 168.413 55 169.267 53.56 170.04C52.12 170.84 50.48 171.56 48.64 172.2ZM73.1672 163L72.3272 133.72H77.9272L78.7672 163H73.1672ZM86.1291 172.2L84.0891 167.08C86.3824 166.28 88.2357 165.4 89.6491 164.44C91.0891 163.48 92.1424 162.453 92.8091 161.36C93.5024 160.267 93.8491 159.133 93.8491 157.96C93.8491 157.213 93.7424 156.44 93.5291 155.64C93.3157 154.813 93.0091 153.947 92.6091 153.04C92.2357 152.133 91.7824 151.187 91.2491 150.2L96.4891 147.68C97.4224 149.467 98.1424 151.173 98.6491 152.8C99.1824 154.427 99.4491 155.947 99.4491 157.36C99.4491 158.667 99.2757 159.92 98.9291 161.12C98.6091 162.32 98.1024 163.44 97.4091 164.48C96.7424 165.547 95.8757 166.547 94.8091 167.48C93.7424 168.413 92.4891 169.267 91.0491 170.04C89.6091 170.84 87.9691 171.56 86.1291 172.2ZM94.9691 143.6C94.1424 143.6 93.4357 143.32 92.8491 142.76C92.2891 142.2 92.0091 141.507 92.0091 140.68C92.0091 139.853 92.2891 139.147 92.8491 138.56C93.4357 137.973 94.1424 137.68 94.9691 137.68C95.7691 137.68 96.4491 137.973 97.0091 138.56C97.5957 139.147 97.8891 139.853 97.8891 140.68C97.8891 141.507 97.5957 142.2 97.0091 142.76C96.4491 143.32 95.7691 143.6 94.9691 143.6ZM120.136 163.2C117.656 163.2 115.736 162.947 114.376 162.44C113.043 161.933 112.11 161.147 111.576 160.08C111.043 158.987 110.736 157.613 110.656 155.96L109.816 133.72H115.416L116.256 153.28C116.31 154.507 116.443 155.427 116.656 156.04C116.87 156.653 117.27 157.067 117.856 157.28C118.47 157.493 119.363 157.6 120.536 157.6C121.55 157.6 122.27 157.867 122.696 158.4C123.15 158.907 123.376 159.547 123.376 160.32C123.376 161.147 123.096 161.84 122.536 162.4C121.976 162.933 121.176 163.2 120.136 163.2ZM125.791 163.2L126.191 157.6C127.364 157.6 128.284 157.52 128.951 157.36C129.644 157.2 130.137 156.907 130.431 156.48C130.724 156.027 130.871 155.387 130.871 154.56C130.871 153.813 130.764 152.92 130.551 151.88C130.364 150.84 130.111 149.76 129.791 148.64C129.471 147.52 129.151 146.493 128.831 145.56L134.351 144.04C134.671 144.947 134.991 146 135.311 147.2C135.631 148.4 135.897 149.64 136.111 150.92C136.351 152.173 136.471 153.387 136.471 154.56C136.471 156.027 136.284 157.267 135.911 158.28C135.537 159.267 135.017 160.093 134.351 160.76C133.711 161.4 132.937 161.907 132.031 162.28C131.151 162.627 130.177 162.867 129.111 163C128.044 163.133 126.937 163.2 125.791 163.2ZM130.711 172.4C129.937 172.4 129.271 172.133 128.711 171.6C128.177 171.067 127.911 170.413 127.911 169.64C127.911 168.867 128.177 168.187 128.711 167.6C129.271 167.04 129.937 166.76 130.711 166.76C131.484 166.76 132.137 167.04 132.671 167.6C133.231 168.187 133.511 168.867 133.511 169.64C133.511 170.413 133.231 171.067 132.671 171.6C132.137 172.133 131.484 172.4 130.711 172.4Z" fill="black"/>
<path d="M92.64 127.2L90.6 122.08C92.8933 121.28 94.7467 120.4 96.16 119.44C97.6 118.48 98.6533 117.453 99.32 116.36C100.013 115.267 100.36 114.133 100.36 112.96C100.36 112.213 100.253 111.44 100.04 110.64C99.8267 109.813 99.52 108.947 99.12 108.04C98.7467 107.133 98.2933 106.187 97.76 105.2L103 102.68C103.933 104.467 104.653 106.173 105.16 107.8C105.693 109.427 105.96 110.947 105.96 112.36C105.96 113.667 105.787 114.92 105.44 116.12C105.12 117.32 104.613 118.44 103.92 119.48C103.253 120.547 102.387 121.547 101.32 122.48C100.253 123.413 99 124.267 97.56 125.04C96.12 125.84 94.48 126.56 92.64 127.2ZM126.647 118.2C124.167 118.2 122.247 117.947 120.887 117.44C119.554 116.933 118.621 116.147 118.087 115.08C117.554 113.987 117.247 112.613 117.167 110.96L116.327 88.72H121.927L122.767 108.28C122.821 109.507 122.954 110.427 123.167 111.04C123.381 111.653 123.781 112.067 124.367 112.28C124.981 112.493 125.874 112.6 127.047 112.6C128.061 112.6 128.781 112.867 129.207 113.4C129.661 113.907 129.887 114.547 129.887 115.32C129.887 116.147 129.607 116.84 129.047 117.4C128.487 117.933 127.687 118.2 126.647 118.2ZM172.422 118.2C171.062 118.2 169.755 118.08 168.502 117.84C167.248 117.573 166.115 117.227 165.102 116.8C164.115 116.373 163.302 115.893 162.662 115.36L166.262 111.48C167.222 111.88 168.208 112.173 169.222 112.36C170.235 112.52 171.435 112.6 172.822 112.6C173.835 112.6 174.555 112.867 174.982 113.4C175.435 113.907 175.662 114.547 175.662 115.32C175.662 116.147 175.382 116.84 174.822 117.4C174.262 117.933 173.462 118.2 172.422 118.2ZM153.022 118.72C150.542 118.72 148.475 118.613 146.822 118.4C145.195 118.187 143.875 117.88 142.862 117.48C141.848 117.08 141.048 116.6 140.462 116.04C139.875 115.48 139.395 114.867 139.022 114.2L140.142 113.88C139.475 115.16 138.715 116.107 137.862 116.72C137.008 117.333 136.115 117.733 135.182 117.92C134.248 118.107 133.288 118.2 132.302 118.2L132.702 112.6C133.528 112.6 134.182 112.467 134.662 112.2C135.142 111.933 135.528 111.493 135.822 110.88C136.142 110.267 136.435 109.453 136.702 108.44C136.968 107.427 137.288 106.187 137.662 104.72L142.742 105.96C142.555 106.68 142.395 107.307 142.262 107.84C142.155 108.373 142.062 108.84 141.982 109.24C141.928 109.613 141.902 109.92 141.902 110.16C141.902 110.667 142.022 111.12 142.262 111.52C142.502 111.893 142.968 112.2 143.662 112.44C144.355 112.653 145.368 112.827 146.702 112.96C148.062 113.067 149.835 113.12 152.022 113.12C154.342 113.12 156.275 113.04 157.822 112.88C159.368 112.693 160.595 112.44 161.502 112.12C162.435 111.773 163.102 111.36 163.502 110.88C163.902 110.373 164.102 109.8 164.102 109.16C164.102 108.653 163.982 108.187 163.742 107.76C163.528 107.307 163.168 106.933 162.662 106.64C162.155 106.347 161.502 106.2 160.702 106.2C159.742 106.2 158.768 106.44 157.782 106.92C156.822 107.373 155.875 107.987 154.942 108.76C154.008 109.507 153.115 110.347 152.262 111.28C151.435 112.213 150.688 113.147 150.022 114.08L144.022 113.4C145.062 111.72 146.235 110.107 147.542 108.56C148.848 107.013 150.248 105.653 151.742 104.48C153.235 103.28 154.782 102.333 156.382 101.64C157.982 100.947 159.608 100.6 161.262 100.6C163.048 100.6 164.568 100.947 165.822 101.64C167.075 102.333 168.035 103.293 168.702 104.52C169.368 105.747 169.702 107.16 169.702 108.76C169.702 110.707 169.142 112.427 168.022 113.92C166.928 115.413 165.155 116.587 162.702 117.44C160.275 118.293 157.048 118.72 153.022 118.72ZM178.058 118.2L178.458 112.6C179.631 112.6 180.551 112.52 181.218 112.36C181.911 112.2 182.404 111.907 182.698 111.48C182.991 111.027 183.138 110.387 183.138 109.56C183.138 108.813 183.031 107.92 182.818 106.88C182.631 105.84 182.378 104.76 182.058 103.64C181.738 102.52 181.418 101.493 181.098 100.56L186.618 99.04C186.938 99.9467 187.258 101 187.578 102.2C187.898 103.4 188.164 104.64 188.378 105.92C188.618 107.173 188.738 108.387 188.738 109.56C188.738 111.027 188.551 112.267 188.178 113.28C187.804 114.267 187.284 115.093 186.618 115.76C185.978 116.4 185.204 116.907 184.298 117.28C183.418 117.627 182.444 117.867 181.378 118C180.311 118.133 179.204 118.2 178.058 118.2ZM183.818 95.72C182.991 95.72 182.284 95.44 181.698 94.88C181.138 94.32 180.858 93.6267 180.858 92.8C180.858 91.9733 181.138 91.2667 181.698 90.68C182.284 90.0933 182.991 89.8 183.818 89.8C184.618 89.8 185.298 90.0933 185.858 90.68C186.444 91.2667 186.738 91.9733 186.738 92.8C186.738 93.6267 186.444 94.32 185.858 94.88C185.298 95.44 184.618 95.72 183.818 95.72ZM199.553 118L198.713 88.72H204.313L205.153 118H199.553Z" fill="#189084"/>
</svg>
